<?xml version="1.0" encoding="UTF-8"?>
<svg version="1.1" viewBox="0 0 2048 1935" width="1280" height="1280" xmlns="http://www.w3.org/2000/svg">
<path transform="translate(660,880)" d="m0 0h47l36 4 29 6 27 8 30 12 22 11 20 12 10 7 14 10 14 11 12 11 16 15 7 8 10 11 13 17 14 21 14 25 10 21 10 27 7 24 6 27 3 20 2 24v32l-3 33-5 26-7 28-9 25-10 24-14 26-14 22-13 16-4 4 2 4 24 24 7 8 10 11 7 4 11-2h24l16 4 11 5 11 6 10 8 10 9 11 11 7 8 13 13 7 8 17 17 7 8 9 9 7 8 10 10 7 8 26 26 7 8 20 20 7 8 16 16 7 8 9 10 10 14 8 17 4 17v21l-4 17-8 17-10 14-10 10-13 9-15 7-13 3-8 1h-25l-12-2-12-5-13-8-15-13-10-10-7-8-20-20-7-8-19-19-7-8-18-18-7-8-21-21-7-8-15-15-7-8-18-18-7-8-13-13-7-8-10-14-8-16-4-15v-27l4-11v-7l-6-9-35-35-3-4-6 1-13 10-25 15-29 14-21 8-26 8-25 6-30 4-12 1h-54l-36-4-21-5-30-9-27-11-28-14-18-11-19-13-10-8-15-13-17-16-11-12-11-13-15-20-12-19-10-18-12-25-9-24-7-23-8-36-4-26-1-10v-33l4-31 6-31 9-32 10-25 11-24 11-20 9-14 14-20 11-14 15-16 13-13 8-7 9-8 13-10 24-16 19-11 19-10 33-13 24-7 24-5 28-4zm12 106-21 2-25 5-27 8-24 11-21 12-17 13-13 11-10 9-10 10-9 11-13 18-13 23-9 20-7 20-4 14-4 24-2 30v11l3 29 5 24 9 27 12 25 10 17 10 14 11 13 12 13 13 12 14 11 10 7 19 11 25 12 21 7 26 6 25 3h35l23-3 32-8 16-6 20-9 16-9 18-12 16-13 15-14 7-8 12-14 10-14 13-23 11-26 8-28 4-22 1-10v-44l-4-27-4-17-9-26-13-27-10-16-12-17-11-12-1-2h-2l-2-4-15-14-17-13-21-13-21-11-23-9-26-7-16-3-24-2z" fill="#3B3C53"/>
<path transform="translate(1487,206)" d="m0 0h89l24 1 17 3 15 6 15 8 12 9 12 11 9 10 9 13 8 15 6 17 2 10 1 13v1014l-1 24-2 15-6 18-11 21-12 16-11 11-15 11-16 8-18 6-16 3-9 1-46 1h-404l-8-4-11-10-11-7-23-11-30-10-2-2 1-7 9-16 8-18 5-12 2-2 485-1 21-1 10-3 5-4 4-7 1-5v-1029l-4-8-4-5-8-3-8-1h-114l-5-8-5-12-8-16-9-11-12-10-17-9-6-7-7-18-1-7z" fill="#3B3C54"/>
<path transform="translate(1151,85)" d="m0 0h41l13 2 14 7 10 9 7 11 3 8 1 4v33l16 2 40 7 16 5 11 7 8 7 9 14 9 25 11 40 6 20 2 2 9 1h10l10 4 6 4 7 8 2 7v14l-6 12-7 8h-454l-8-3-6-8-5-12-1-6 5-12 6-9 9-6 22-1 5-3 10-30 8-29 7-20 8-15 7-9 11-8 12-5 18-4 30-5 15-2v-27l3-14 5-10 6-7 10-8 10-5 7-2z" fill="#4781B9"/>
<path transform="translate(754,206)" d="m0 0h168l17 1 3 2-2 9-7 16-7 8-16 8-9 7-8 8-8 14-7 16-4 9-120 1-9 2-6 5-3 6-1 5-1 23v464l-2 2-23-1h-43l-31 1-2-5v-486l3-21 5-14 8-17 12-17 11-12 10-9 15-10 21-10 18-4z" fill="#3B3C53"/>
<path transform="translate(762,1106)" d="m0 0h9l10 5 22 15 16 11 11 10 2 4v6l-7 12-7 10-8 12-13 19-11 15-12 17-12 18-13 18-8 12-24 34-10 14-12 17-9 12-9 10-5 4-12-5-10-7-16-10-22-15-17-12-18-13-19-13-15-10-12-9-7-6-3-4v-7l6-12 8-11 13-19 8-11 7-7 3-2 7 1 12 6 22 15 19 13 10 7 12 9 5-2 15-20 7-11 13-18 22-32 12-17 10-14 14-20 9-12z" fill="#4780B8"/>
<path transform="translate(1341,575)" d="m0 0h111l22 1 5 5 1 3 1 13v14l-1 14-4 5-2 1-241 1h-365l-5-3-4-8-1-6v-24l2-10 3-4 3-1z" fill="#3B3C54"/>
<path transform="translate(1352,810)" d="m0 0h55l68 1 3 2 2 5v42l-4 5-3 1-482 1h-96l-12-6-14-8-9-6-3-7 1-14 4-11 5-4z" fill="#3B3C53"/>
<path transform="translate(1061,1045)" d="m0 0h400l14 1 4 4 1 2 1 10v21l-1 11-4 5-9 2-341 1h-40l-4-5-14-33-7-16z" fill="#3B3D55"/>
<path transform="translate(830,1151)" d="m0 0h2v6l-7 12-7 10-8 12-13 19-11 15-12 17-5 5-11 16-12 17-6 8v-3l13-19 14-20 12-17 24-36 11-17 8-13 7-11z" fill="#3B3C53"/>
<path transform="translate(755,1114)" d="m0 0v3l-8 12-24 34-14 19-12 17-5 5 2-5 21-30 10-14 14-20 12-17z" fill="#4F86BC"/>
<path transform="translate(759,1111)" d="m0 0v3l-17 25-12 17-11 15-13 18-12 16-2-1 9-12 26-36 10-14 13-19 8-11z" fill="#3B3C53"/>
<path transform="translate(831,1151)" d="m0 0h1v6l-7 12-7 10-8 12-13 19-6 8-1-2 10-15 7-11 11-17 10-17z" fill="#5A8EC0"/>
<path transform="translate(771,1243)" d="m0 0 2 1-11 16-13 18-8 12-11 16-2-2 36-51z" fill="#5489BD"/>
<path transform="translate(690,1208)" d="m0 0v3l-14 19-8 10v-3l7-11 11-15z" fill="#475878"/>
<path transform="translate(787,1219)" d="m0 0h2l-2 5-11 15-5 5-2-1 10-14 7-9z" fill="#3E4E6E"/>
<path transform="translate(831,1151)" d="m0 0h1v6l-7 12-5 7-2-1 2-5 8-14z" fill="#578CBF"/>
<path transform="translate(714,1172)" d="m0 0v3l-20 28-2 1 2-5 7-10 11-16z" fill="#5D90C1"/>
<path transform="translate(745,1281)" d="m0 0v3l-13 19-3 3v-3l11-16z" fill="#5F92C2"/>
<path transform="translate(727,1154)" d="m0 0v3l-10 14-3 1 2-4 7-10z" fill="#4A83BA"/>
<path transform="translate(818,1175)" d="m0 0 1 2-8 13-2-1 2-5 6-8z" fill="#5D90C1"/>
<path transform="translate(728,1305)" d="m0 0v3l-10 15-2-2 11-15z" fill="#5187BC"/>
<path transform="translate(787,1219)" d="m0 0h2l-2 5-5 7-2-3 6-8z" fill="#4F6281"/>
<path transform="translate(690,1208)" d="m0 0v3l-7 9-4 2 2-4 5-7z" fill="#4E5C78"/>
<path transform="translate(714,1325)" d="m0 0 1 2-7 10-2-2 7-9z" fill="#5A8EC0"/>
</svg>
